<?xml version="1.0" encoding="UTF-8"?><svg id="Layer_1" xmlns="http://www.w3.org/2000/svg" viewBox="0 0 992.95 137.04"><defs><style>.cls-1{fill:#fff;}</style></defs><path class="cls-1" d="M229.8,100.34l-5.76,15.83h-15.36l26.42-67.17h15.32l26.42,67.17h-15.37l-5.76-15.83h-25.9ZM242.77,65.82l-8.2,22.06h16.35l-8.15-22.06Z"/><path class="cls-1" d="M357.89,48.98c3.19.92,5.8,2.04,7.85,3.35s3.86,2.62,5.43,3.94,2.71,2.42,3.4,3.33l1.08,1.41-9.13,9.13c-.19-.25-.44-.6-.77-1.05-.33-.45-1.06-1.23-2.2-2.32-1.14-1.09-2.38-2.05-3.72-2.88s-3.11-1.59-5.29-2.3-4.42-1.05-6.7-1.05c-6.28,0-11.52,2.11-15.74,6.32-4.22,4.22-6.32,9.46-6.32,15.74s2.11,11.52,6.32,15.74c4.22,4.22,9.46,6.32,15.74,6.32,2.44,0,4.77-.34,7-1.01s4.08-1.47,5.55-2.39,2.76-1.85,3.89-2.79c1.12-.94,1.94-1.75,2.44-2.44l.75-.98,8.67,9.13c-.25.37-.63.87-1.15,1.48-.52.61-1.66,1.69-3.42,3.23-1.76,1.55-3.65,2.9-5.67,4.08-2.01,1.17-4.65,2.24-7.92,3.21-3.26.97-6.64,1.45-10.14,1.45-10.24,0-18.89-3.43-25.93-10.28-7.04-6.85-10.56-15.11-10.56-24.76s3.52-17.89,10.56-24.73c7.04-6.84,15.69-10.26,25.93-10.26,3.53,0,6.89.46,10.07,1.38Z"/><path class="cls-1" d="M420.22,49h29.75c6.65,0,12.16,2.13,16.51,6.39,4.36,4.26,6.53,9.49,6.53,15.67,0,2.69-.42,5.2-1.26,7.54s-1.83,4.23-2.97,5.67c-1.14,1.44-2.3,2.67-3.49,3.7-1.19,1.03-2.2,1.73-3.04,2.11l-1.22.66,14.38,25.44h-15.37l-12.93-23.52h-12.46v23.52h-14.43V49ZM456.04,64.55c-1.73-1.72-3.91-2.58-6.54-2.58h-14.85v17.75h14.85c2.62,0,4.8-.84,6.54-2.51,1.73-1.67,2.6-3.72,2.6-6.16,0-2.62-.87-4.79-2.6-6.51Z"/><path class="cls-1" d="M520.96,49h14.43v67.17h-14.43V49Z"/><path class="cls-1" d="M611.09,91.07c-2.26-1.37-5.03-2.52-8.29-3.44s-6.51-2.01-9.74-3.26c-3.23-1.25-5.99-3.31-8.27-6.18s-3.42-6.51-3.42-10.92c0-5.43,2.18-10.07,6.54-13.91s10.02-5.76,16.98-5.76c2.75,0,5.4.32,7.96.96,2.56.64,4.66,1.39,6.3,2.25,1.64.86,3.08,1.73,4.31,2.62,1.23.89,2.12,1.66,2.65,2.32l.84.94-8.62,9.13c-.37-.44-.9-.98-1.57-1.62-.67-.64-2.08-1.49-4.24-2.55-2.15-1.06-4.37-1.59-6.65-1.59-2.75,0-4.96.7-6.63,2.11-1.67,1.41-2.51,3.11-2.51,5.11,0,2.25,1.13,4.05,3.4,5.41s5.01,2.51,8.24,3.44c3.23.94,6.48,2.03,9.74,3.28,3.26,1.25,6.04,3.31,8.31,6.18s3.42,6.51,3.42,10.91c0,6.21-2.26,11.29-6.77,15.22s-10.74,5.9-18.67,5.9c-3.12,0-6.14-.38-9.06-1.15s-5.32-1.68-7.21-2.74c-1.89-1.06-3.55-2.14-4.99-3.23-1.44-1.09-2.47-2.01-3.09-2.76l-1.08-1.17,8.67-8.62c.44.5,1.05,1.15,1.85,1.94s2.57,1.87,5.32,3.21c2.75,1.34,5.62,2.01,8.62,2.01,3.47,0,6.18-.81,8.13-2.44,1.95-1.62,2.93-3.69,2.93-6.18,0-2.25-1.13-4.06-3.4-5.43Z"/><path class="cls-1" d="M714.66,100.11c2.9-3.03,4.36-6.79,4.36-11.29v-39.82h14.38v39.82c0,8.18-2.78,15.03-8.34,20.54-5.56,5.51-12.53,8.27-20.92,8.27s-15.36-2.76-20.92-8.27c-5.56-5.51-8.34-12.36-8.34-20.54v-39.82h14.38v39.82c0,4.47,1.46,8.22,4.38,11.27,2.92,3.04,6.43,4.57,10.52,4.57s7.59-1.51,10.49-4.54Z"/><path class="cls-1" d="M782.8,49h29.75c6.65,0,12.16,2.13,16.51,6.39,4.36,4.26,6.53,9.49,6.53,15.67,0,2.69-.42,5.2-1.26,7.54s-1.83,4.23-2.97,5.67c-1.14,1.44-2.3,2.67-3.49,3.7-1.19,1.03-2.2,1.73-3.04,2.11l-1.22.66,14.38,25.44h-15.37l-12.93-23.52h-12.46v23.52h-14.43V49ZM818.61,64.55c-1.73-1.72-3.91-2.58-6.54-2.58h-14.85v17.75h14.85c2.62,0,4.8-.84,6.54-2.51,1.73-1.67,2.6-3.72,2.6-6.16,0-2.62-.87-4.79-2.6-6.51Z"/><path class="cls-1" d="M933.95,103.25v12.93h-50.4V49h49.42v12.98h-34.99v13.44h27.31v12.93h-27.31v14.9h35.98Z"/><path class="cls-1" d="M988.32,75.03c-3.08,3.05-6.85,4.57-11.28,4.57s-8.2-1.52-11.27-4.57-4.62-6.75-4.62-11.1,1.54-8.05,4.62-11.1,6.83-4.57,11.27-4.57,8.2,1.52,11.28,4.57,4.63,6.75,4.63,11.1-1.54,8.05-4.63,11.1ZM967.72,73.25c2.5,2.5,5.6,3.75,9.32,3.75s6.82-1.25,9.33-3.75,3.75-5.61,3.75-9.33-1.25-6.82-3.75-9.32c-2.5-2.5-5.61-3.74-9.33-3.74s-6.82,1.25-9.32,3.74c-2.5,2.5-3.74,5.6-3.74,9.32s1.25,6.82,3.74,9.33ZM984.02,71.99h-2.79l-3.32-6.1h-3.7v6.1h-2.62v-16.12h6.15c1.6,0,2.9.48,3.9,1.44,1,.96,1.5,2.15,1.5,3.58,0,.96-.25,1.81-.77,2.53s-1.01,1.21-1.51,1.47l-.79.36,3.93,6.74ZM974.21,63.26h3.7c1.89,0,2.83-.8,2.83-2.39s-.94-2.39-2.83-2.39h-3.7v4.79Z"/><polygon class="cls-1" points="0 137.04 36.16 137.04 99.19 29.81 81.32 0 0 137.04"/><polygon class="cls-1" points="102.42 35.84 84.62 66.12 126.31 137.04 162.47 137.04 102.42 35.84"/><polygon class="cls-1" points="42.7 137.04 119.6 137.04 102.33 107.78 59.97 107.78 42.7 137.04"/><polygon class="cls-1" points="81.11 71.75 63.46 101.88 98.76 101.88 81.11 71.75"/></svg>